# xmcd
#
# Track frame offsets:
#	150
#	16385
#	35698
#	50977
#	65081
#	81965
#	96128
#	111648
#	130121
#	143181
#	160639
#	175348
#	191076
#
# Disc length: 2749 seconds
#
# Revision: 0
# Processed by: cddbd v1.5.2PL0 Copyright (c) Steve Scherf et al.
# Submitted via: EasyCDDAExtractor 9.1.3.1
#
DISCID=c00abb0d
DTITLE=Jeff Bates
DYEAR=2008
DGENRE=Country
TTITLE0=I Can't Have Nothing Nice
TTITLE1=Lonesome
TTITLE2=One Thing
TTITLE3=A Country Girl Can
TTITLE4=Riverbank
TTITLE5=Chevy Don't Let Me Down
TTITLE6=Don't Hate Me for Loving You
TTITLE7=My Wave
TTITLE8=Some Days
TTITLE9=He Wasn't Like Us
TTITLE10=Dead Or Alive
TTITLE11=Country Man
TTITLE12=Somebody's Falling
EXTD=
EXTT0=
EXTT1=
EXTT2=
EXTT3=
EXTT4=
EXTT5=
EXTT6=
EXTT7=
EXTT8=
EXTT9=
EXTT10=
EXTT11=
EXTT12=
PLAYORDER=
